# xmcd CD database file
#
# Track frame offsets:
#	187
#	24975
#	44115
#	65030
#	90022
#	102117
#	121945
#
# Disc length: 1959 seconds
#
# Revision: 0
# Processed by: cddbd v1.5PL3 Copyright (c) Steve Scherf et al.
# Submitted via: CDex 1.50
#
DISCID=5107a507
DTITLE=こなかりゆ - A Funny Egg
DYEAR=1997
DGENRE=JPop
TTITLE0=37才のbaby (take.1)
TTITLE1=おかしなタマゴ (home take)
TTITLE2=おかえりなさい、うれしい
TTITLE3=空の下の天国
TTITLE4=犬の気持ち
TTITLE5=夏がやってくる
TTITLE6=おかしなタマゴ
EXTD=YEAR: 1997
EXTT0=
EXTT1=
EXTT2=
EXTT3=
EXTT4=
EXTT5=
EXTT6=
PLAYORDER=
